<svg xmlns="http://www.w3.org/2000/svg" width="32" height="32" viewBox="0 0 32 32" fill="currentColor">
<path fill-rule="evenodd" clip-rule="evenodd" d="M15.9248 1.66675H16.0752C18.5255 1.66673 20.4664 1.66671 21.9853 1.87093C23.5486 2.0811 24.8138 2.52392 25.8117 3.52174C26.8095 4.51956 27.2523 5.78482 27.4625 7.34805C27.6667 8.86701 27.6667 10.8079 27.6666 13.2582V18.742C27.6667 21.1923 27.6667 23.1332 27.4625 24.6521C27.2523 26.2153 26.8095 27.4806 25.8117 28.4784C24.8138 29.4762 23.5486 29.9191 21.9853 30.1292C20.4664 30.3335 18.5255 30.3334 16.0752 30.3334H15.9248C13.4744 30.3334 11.5336 30.3335 10.0146 30.1292C8.45139 29.9191 7.18612 29.4762 6.1883 28.4784C5.19049 27.4806 4.74766 26.2153 4.53749 24.6521C4.33328 23.1332 4.33329 21.1923 4.33331 18.742V13.2582C4.33329 10.8078 4.33328 8.867 4.53749 7.34805C4.74766 5.78482 5.19049 4.51956 6.1883 3.52174C7.18612 2.52392 8.45139 2.0811 10.0146 1.87093C11.5336 1.66671 13.4744 1.66673 15.9248 1.66675ZM10.2811 3.85309C8.93966 4.03345 8.1668 4.37167 7.60252 4.93595C7.03824 5.50023 6.70001 6.27309 6.51966 7.61455C6.33544 8.98477 6.33331 10.791 6.33331 13.3334V18.6667C6.33331 21.2092 6.33544 23.0154 6.51966 24.3856C6.70001 25.7271 7.03824 26.4999 7.60252 27.0642C8.1668 27.6285 8.93966 27.9667 10.2811 28.1471C11.6513 28.3313 13.4576 28.3334 16 28.3334C18.5424 28.3334 20.3486 28.3313 21.7188 28.1471C23.0603 27.9667 23.8332 27.6285 24.3974 27.0642C24.9617 26.4999 25.2999 25.7271 25.4803 24.3856C25.6645 23.0154 25.6666 21.2092 25.6666 18.6667V13.3334C25.6666 10.791 25.6645 8.98477 25.4803 7.61455C25.2999 6.27309 24.9617 5.50023 24.3974 4.93595C23.8332 4.37167 23.0603 4.03345 21.7189 3.85309C20.3486 3.66887 18.5424 3.66675 16 3.66675C13.4576 3.66675 11.6513 3.66887 10.2811 3.85309ZM11 25.3334C11 24.7811 11.4477 24.3334 12 24.3334H20C20.5523 24.3334 21 24.7811 21 25.3334C21 25.8857 20.5523 26.3334 20 26.3334H12C11.4477 26.3334 11 25.8857 11 25.3334Z" />
</svg>