<svg xmlns="http://www.w3.org/2000/svg" width="32" height="32" viewBox="0 0 32 32" fill="currentColor">
<path fill-rule="evenodd" clip-rule="evenodd" d="M15.9268 1.66675H16.0732C17.8966 1.66672 19.3664 1.6667 20.5223 1.82211C21.7225 1.98347 22.733 2.32866 23.5355 3.13122C24.3381 3.93377 24.6833 4.94427 24.8446 6.14442C25.0001 7.30037 25 8.77014 25 10.5936V21.4066C25 23.23 25.0001 24.6998 24.8446 25.8558C24.6833 27.0559 24.3381 28.0664 23.5355 28.869C22.733 29.6715 21.7225 30.0167 20.5223 30.1781C19.3664 30.3335 17.8966 30.3334 16.0732 30.3334H15.9268C14.1034 30.3334 12.6336 30.3335 11.4777 30.1781C10.2775 30.0167 9.26702 29.6715 8.46447 28.869C7.66191 28.0664 7.31672 27.0559 7.15537 25.8558C6.99995 24.6998 6.99997 23.23 7 21.4066V10.5936C6.99997 8.77013 6.99995 7.30037 7.15537 6.14442C7.31672 4.94427 7.66191 3.93377 8.46447 3.13122C9.26702 2.32866 10.2775 1.98347 11.4777 1.82211C12.6336 1.6667 14.1034 1.66672 15.9268 1.66675ZM11.7442 3.80428C10.7658 3.93582 10.2477 4.17641 9.87868 4.54543C9.50966 4.91445 9.26907 5.43254 9.13753 6.41091C9.00213 7.41804 9 8.75286 9 10.6667V21.3334C9 23.2473 9.00213 24.5821 9.13753 25.5893C9.26907 26.5676 9.50966 27.0857 9.87868 27.4547C10.2477 27.8238 10.7658 28.0644 11.7442 28.1959C12.7513 28.3313 14.0861 28.3334 16 28.3334C17.9139 28.3334 19.2487 28.3313 20.2558 28.1959C21.2342 28.0644 21.7523 27.8238 22.1213 27.4547C22.4903 27.0857 22.7309 26.5676 22.8625 25.5893C22.9979 24.5821 23 23.2473 23 21.3334V10.6667C23 8.75286 22.9979 7.41804 22.8625 6.41091C22.7309 5.43254 22.4903 4.91445 22.1213 4.54543C21.7523 4.17641 21.2342 3.93582 20.2558 3.80428C19.2487 3.66887 17.9139 3.66675 16 3.66675C14.0861 3.66675 12.7513 3.66887 11.7442 3.80428Z" />
<path d="M28 5.00008C28.5523 5.00008 29 5.4478 29 6.00008V26.0001C29 26.5524 28.5523 27.0001 28 27.0001C27.4477 27.0001 27 26.5524 27 26.0001V6.00008C27 5.4478 27.4477 5.00008 28 5.00008Z" />
<path d="M3 6.00008C3 5.4478 3.44772 5.00008 4 5.00008C4.55228 5.00008 5 5.4478 5 6.00008V26.0001C5 26.5524 4.55228 27.0001 4 27.0001C3.44772 27.0001 3 26.5524 3 26.0001V6.00008Z" />
</svg>