<svg xmlns="http://www.w3.org/2000/svg" width="32" height="32" viewBox="0 0 32 32" fill="currentColor">
<path fill-rule="evenodd" clip-rule="evenodd" d="M8.31624 6.28196C8.84019 6.10731 9.12335 5.54099 8.9487 5.01705C8.77405 4.49311 8.20773 4.20995 7.68379 4.3846L6.94406 4.63117C6.18287 4.88487 5.53764 5.09993 5.02544 5.33404C4.48039 5.58318 4.00328 5.88886 3.62348 6.36839C3.24369 6.84793 3.05541 7.38236 2.93773 7.96999C2.82715 8.52219 2.7656 9.19953 2.69298 9.99859L1.7633 20.2251C1.7004 20.5815 1.66731 20.9483 1.66669 21.3226C1.67394 24.8142 4.50669 27.6666 8.00001 27.6666C11.151 27.6666 13.7646 25.3655 14.2518 22.352L14.5439 22.2478C15.4856 21.9119 16.5145 21.9119 17.4561 22.2479L17.7482 22.352C18.2355 25.3655 20.849 27.6666 24 27.6666C27.4933 27.6666 30.3261 24.8141 30.3333 21.3225C30.3327 20.9482 30.2996 20.5815 30.2367 20.2251L29.307 9.99859C29.2344 9.19953 29.1729 8.52219 29.0623 7.96999C28.9446 7.38236 28.7563 6.84793 28.3765 6.36839C27.9967 5.88886 27.5196 5.58318 26.9746 5.33404C26.4624 5.09993 25.8172 4.88487 25.056 4.63117L24.3162 4.3846C23.7923 4.20995 23.226 4.49311 23.0513 5.01705C22.8767 5.54099 23.1598 6.10731 23.6838 6.28196L24.3747 6.51227C25.1978 6.78664 25.7401 6.96882 26.1431 7.15303C26.5242 7.32721 26.6952 7.46677 26.8087 7.61014C26.9223 7.7535 27.019 7.95188 27.1012 8.36271C27.1882 8.7972 27.2414 9.36682 27.3199 10.2309L27.8737 16.3223C26.8028 15.4933 25.459 14.9999 24 14.9999C20.8732 14.9999 18.2756 17.2659 17.7598 20.2453C16.6103 19.9127 15.3898 19.9127 14.2402 20.2453C13.7244 17.2659 11.1268 14.9999 8.00001 14.9999C6.54098 14.9999 5.19718 15.4933 4.12635 16.3223L4.68011 10.2309C4.75867 9.36682 4.81179 8.7972 4.8988 8.36271C4.98107 7.95188 5.07777 7.7535 5.19131 7.61014C5.30485 7.46677 5.47581 7.32721 5.85688 7.15303C6.25989 6.96882 6.8022 6.78664 7.62533 6.51227L8.31624 6.28196ZM28.2536 20.5016L28.3331 21.3764C28.31 23.7497 26.3789 25.6666 24 25.6666C21.6068 25.6666 19.6667 23.7265 19.6667 21.3333C19.6667 18.94 21.6068 16.9999 24 16.9999C26.1088 16.9999 27.8657 18.5062 28.2536 20.5016ZM3.74642 20.5016L3.66689 21.3764C3.69001 23.7498 5.62116 25.6666 8.00001 25.6666C10.3932 25.6666 12.3333 23.7265 12.3333 21.3333C12.3333 18.94 10.3932 16.9999 8.00001 16.9999C5.89125 16.9999 4.1343 18.5062 3.74642 20.5016Z" fill="black"/>
</svg>