<svg width="32" height="32" viewBox="0 0 32 32" fill="currentColor" xmlns="http://www.w3.org/2000/svg">
<path d="M16 30.3334C15.0667 30.3334 14.12 29.9733 13.4133 29.2666L11.1333 27.0134C10.56 26.4534 9.81333 26.1467 9.01333 26.1467H8C5.24 26.1467 3 23.9201 3 21.1867V6.64001C3 3.90668 5.24 1.68005 8 1.68005H24C26.76 1.68005 29 3.90668 29 6.64001V21.1867C29 23.9201 26.76 26.1467 24 26.1467H22.9867C22.1867 26.1467 21.4267 26.4534 20.8667 27.0134L18.5867 29.2666C17.88 29.9733 16.9333 30.3334 16 30.3334ZM8 3.66671C6.34667 3.66671 5 5 5 6.62667V21.1734C5 22.8134 6.34667 24.1333 8 24.1333H9.01333C10.3467 24.1333 11.6 24.6533 12.5467 25.5866L14.8267 27.84C15.48 28.48 16.5333 28.48 17.1867 27.84L19.4667 25.5866C20.4133 24.6533 21.6667 24.1333 23 24.1333H24C25.6533 24.1333 27 22.8 27 21.1734V6.62667C27 4.98667 25.6533 3.66671 24 3.66671H8Z" />
<path d="M13.8403 19.3467H10.267C9.6803 19.3467 9.13363 19.0666 8.78697 18.5866C8.45363 18.1333 8.37363 17.5734 8.53363 17.0401C9.0003 15.6134 10.147 14.84 11.1603 14.1467C12.227 13.4267 12.827 12.9734 12.827 12.2001C12.827 11.5067 12.267 10.9467 11.5736 10.9467C10.8803 10.9467 10.3203 11.5067 10.3203 12.2001C10.3203 12.7467 9.86698 13.2001 9.32031 13.2001C8.77365 13.2001 8.32031 12.7467 8.32031 12.2001C8.32031 10.4134 9.77363 8.94666 11.5736 8.94666C13.3736 8.94666 14.827 10.4001 14.827 12.2001C14.827 14.0801 13.4136 15.04 12.2803 15.8134C11.5736 16.2934 10.907 16.7467 10.5736 17.3467H13.827C14.3736 17.3467 14.827 17.8001 14.827 18.3467C14.827 18.8934 14.387 19.3467 13.8403 19.3467Z" />
<path d="M21.3865 19.3468C20.8399 19.3468 20.3865 18.8935 20.3865 18.3468V17.4267H17.7732C17.7732 17.4267 17.7732 17.4267 17.7599 17.4267C17.1066 17.4267 16.5066 17.0801 16.1732 16.5201C15.8399 15.9468 15.8399 15.2401 16.1732 14.6801C17.0799 13.1201 18.1332 11.3468 19.0932 9.80009C19.5199 9.12009 20.3332 8.81348 21.0932 9.02681C21.8532 9.25348 22.3865 9.94686 22.3732 10.7469V15.4401H22.6665C23.2132 15.4401 23.6665 15.8934 23.6665 16.4401C23.6665 16.9867 23.2132 17.4401 22.6665 17.4401H22.3865V18.3601C22.3865 18.9068 21.9465 19.3468 21.3865 19.3468ZM20.3865 11.5201C19.5999 12.8001 18.7865 14.1734 18.0532 15.4267H20.3865V11.5201Z" />
</svg>
