<svg xmlns="http://www.w3.org/2000/svg" width="32" height="32" viewBox="0 0 32 32" fill="currentColor">
<path fill-rule="evenodd" clip-rule="evenodd" d="M13.3424 4.59623C13.7495 4.96942 13.777 5.60199 13.4038 6.0091L7.60657 12.3334H26.6667C27.219 12.3334 27.6667 12.7811 27.6667 13.3334C27.6667 13.8857 27.219 14.3334 26.6667 14.3334H5.33333C4.93677 14.3334 4.57767 14.099 4.41799 13.736C4.2583 13.373 4.32821 12.95 4.59618 12.6577L11.9295 4.65766C12.3027 4.25054 12.9353 4.22303 13.3424 4.59623Z" />
<path fill-rule="evenodd" clip-rule="evenodd" d="M27.582 18.2641C27.4223 17.9011 27.0632 17.6667 26.6667 17.6667L5.33333 17.6667C4.78105 17.6667 4.33333 18.1144 4.33333 18.6667C4.33333 19.219 4.78105 19.6667 5.33333 19.6667L24.3934 19.6667L18.5962 25.991C18.223 26.3981 18.2505 27.0307 18.6576 27.4039C19.0647 27.7771 19.6973 27.7496 20.0705 27.3424L27.4038 19.3424C27.6718 19.0501 27.7417 18.627 27.582 18.2641Z" />
</svg>