<svg xmlns="http://www.w3.org/2000/svg" width="32" height="32" viewBox="0 0 32 32" fill="currentColor">
<path fill-rule="evenodd" clip-rule="evenodd" d="M27.8981 15.667C27.8709 15.6667 27.8354 15.6667 27.7778 15.6667H24.3077C22.4098 15.6667 21 17.0783 21 18.6667C21 20.255 22.4098 21.6667 24.3077 21.6667H27.7778C27.8354 21.6667 27.8709 21.6667 27.8981 21.6664C27.9236 21.6661 27.9306 21.6657 27.9306 21.6657C28.2054 21.6489 28.3236 21.4635 28.3326 21.3519C28.3326 21.3519 28.3329 21.3435 28.333 21.3314C28.3333 21.3078 28.3334 21.2762 28.3334 21.2222V16.1111C28.3334 16.0812 28.3333 16.0582 28.3333 16.0396C28.3333 16.0246 28.3332 16.0125 28.333 16.0019C28.3329 15.9898 28.3326 15.9814 28.3326 15.9814C28.3237 15.8699 28.2054 15.6844 27.9306 15.6677C27.9306 15.6677 27.924 15.6672 27.8981 15.667ZM27.7999 13.6667C27.8884 13.6666 27.9737 13.6666 28.0521 13.6714C29.2139 13.7421 30.2414 14.6184 30.3278 15.8424C30.3335 15.9226 30.3334 16.0092 30.3334 16.0893C30.3334 16.0967 30.3334 16.1039 30.3334 16.1111V21.2222C30.3334 21.2294 30.3334 21.2367 30.3334 21.244C30.3334 21.3242 30.3335 21.4107 30.3278 21.4909C30.2414 22.7149 29.2139 23.5913 28.0521 23.662C27.9737 23.6667 27.8884 23.6667 27.7999 23.6667C27.7925 23.6667 27.7852 23.6667 27.7778 23.6667H24.3077C21.4474 23.6667 19 21.4966 19 18.6667C19 15.8367 21.4474 13.6667 24.3077 13.6667H27.7778C27.7852 13.6667 27.7925 13.6667 27.7999 13.6667Z" />
<path d="M25.3334 18.6667C25.3334 19.403 24.7364 20 24 20C23.2636 20 22.6667 19.403 22.6667 18.6667C22.6667 17.9303 23.2636 17.3333 24 17.3333C24.7364 17.3333 25.3334 17.9303 25.3334 18.6667Z" />
<path fill-rule="evenodd" clip-rule="evenodd" d="M27.7999 13.6667C27.8884 13.6666 27.9737 13.6666 28.0521 13.6714C28.3527 13.6897 28.6443 13.7619 28.9129 13.8801C28.7703 11.7382 28.3775 10.0875 27.145 8.85499C26.1472 7.85717 24.8819 7.41435 23.3187 7.20418L23.2623 7.19672C23.2483 7.18636 23.234 7.1763 23.2193 7.16657L18.2387 3.86408C16.5011 2.71197 14.1656 2.71197 12.428 3.86408L7.4474 7.16657C7.43272 7.1763 7.41838 7.18636 7.40438 7.19672L7.34799 7.20418C5.78476 7.41435 4.5195 7.85717 3.52168 8.85499C2.52386 9.85281 2.08104 11.1181 1.87087 12.6813C1.66665 14.2003 1.66667 16.1411 1.66669 18.5914V18.7419C1.66667 21.1922 1.66665 23.1331 1.87087 24.652C2.08104 26.2153 2.52386 27.4805 3.52168 28.4783C4.5195 29.4762 5.78476 29.919 7.34799 30.1292C8.86694 30.3334 10.8078 30.3334 13.2581 30.3333H17.4086C19.8589 30.3334 21.7998 30.3334 23.3187 30.1292C24.8819 29.919 26.1472 29.4762 27.145 28.4783C28.3775 27.2458 28.7703 25.5952 28.9129 23.4532C28.6443 23.5715 28.3527 23.6437 28.0521 23.662C27.9737 23.6667 27.8884 23.6667 27.7999 23.6667L27.7778 23.6667H26.8906C26.7388 25.4553 26.3955 26.3994 25.7308 27.0641C25.1665 27.6284 24.3937 27.9666 23.0522 28.147C21.682 28.3312 19.8758 28.3333 17.3334 28.3333H13.3334C10.7909 28.3333 8.98471 28.3312 7.61449 28.147C6.27303 27.9666 5.50017 27.6284 4.93589 27.0641C4.37161 26.4998 4.03339 25.727 3.85303 24.3855C3.66881 23.0153 3.66669 21.2091 3.66669 18.6667C3.66669 16.1242 3.66881 14.318 3.85303 12.9478C4.03339 11.6063 4.37161 10.8335 4.93589 10.2692C5.50017 9.70492 6.27303 9.3667 7.61449 9.18635C8.9847 9.00212 10.7909 9 13.3334 9H17.3334C19.8758 9 21.682 9.00212 23.0522 9.18634C24.3937 9.3667 25.1665 9.70492 25.7308 10.2692C26.3955 10.9339 26.7388 11.8781 26.8906 13.6667H27.7778L27.7999 13.6667ZM13.2581 7H17.4086C18.0972 6.99999 18.7457 6.99999 19.3558 7.00452L17.1334 5.53095C16.0658 4.82302 14.6009 4.82302 13.5333 5.53094L11.3109 7.00452C11.921 6.99999 12.5695 6.99999 13.2581 7Z" />
<path d="M8.00002 12.3333C7.44774 12.3333 7.00002 12.781 7.00002 13.3333C7.00002 13.8856 7.44774 14.3333 8.00002 14.3333H13.3334C13.8856 14.3333 14.3334 13.8856 14.3334 13.3333C14.3334 12.781 13.8856 12.3333 13.3334 12.3333H8.00002Z" />
<path fill-rule="evenodd" clip-rule="evenodd" d="M25.3334 18.6667C25.3334 19.403 24.7364 20 24 20C23.2636 20 22.6667 19.403 22.6667 18.6667C22.6667 17.9303 23.2636 17.3333 24 17.3333C24.7364 17.3333 25.3334 17.9303 25.3334 18.6667Z" />
</svg>